<svg xmlns="http://www.w3.org/2000/svg" xmlns:xlink="http://www.w3.org/1999/xlink" aria-hidden="true" role="img" class="iconify iconify--logos" width="31.88" height="32" preserveAspectRatio="xMidYMid meet" viewBox="0 0 256 257"><defs><linearGradient id="IconifyId1813088fe1fbc01fb466" x1="-.828%" x2="57.636%" y1="-7.652%" y2="78.411%"><stop offset="0%" stop-color="#FF00FF"></stop><stop offset="100%" stop-color="#FF8C00"></stop></linearGradient></defs><path fill="url(#IconifyId1813088fe1fbc01fb466)" d="M255.153 37.938L134.897 252.976c-2.883 5.084-10.017 5.025-12.837-.143L.469 37.938c-2.725-4.806 1.208-10.618 6.337-10.618h242.256c5.128 0 9.063 5.812 6.337 10.618Z"></path><path fill="#FF00FF" d="M185.432.063L96.44 17.501a6.534 6.534 0 0 0-5.407 6.441V127a6.534 6.534 0 0 0 6.534 6.534h63.079a6.534 6.534 0 0 0 6.534-6.534V23.997a6.533 6.533 0 0 0-6.534-6.534Z"></path><path fill="#FFF" d="M185.432.063L96.44 17.501a6.534 6.534 0 0 0-5.407 6.441V127a6.534 6.534 0 0 0 6.534 6.534h63.079a6.534 6.534 0 0 0 6.534-6.534V23.997a6.533 6.533 0 0 0-6.534-6.534Z"></path></svg>